<?xml version="1.0" encoding="utf-8" ?><svg xmlns="http://www.w3.org/2000/svg" xmlns:xlink="http://www.w3.org/1999/xlink" width="1275" height="1275" viewBox="0 0 1275 1275"><path transform="scale(1.24512 1.24512)" d="M0 0L1024 0L1024 1024L0 1024L0 0Z"/><path fill="#5DDB91" transform="scale(1.24512 1.24512)" d="M405.756 174.733C406.286 174.713 406.817 174.699 407.347 174.69C456.463 173.733 496.218 214.116 496.518 263.007L496.524 618.215L496.582 718.95C496.613 732.959 497.498 763.033 495.437 775.991C492.515 793.831 484.145 810.33 471.475 823.224C459.607 835.106 444.546 843.288 428.12 846.777C414.856 849.64 399.562 849.029 385.845 849.025L344.64 849.018L191.25 849.024L150.615 849.137C138.183 849.213 129.606 849.327 118.958 842.11C104.281 832.162 100.019 820.184 99.9754 803.298L100.069 599.852L100.077 543.651C100.044 522.699 96.8143 504.435 112.734 488.605C126.96 474.459 142.141 477.014 160.406 476.991L201.914 476.943L201.881 411.831C201.895 394.268 200.776 367.614 204.861 351.376C208.681 336.1 216.555 322.14 227.653 310.969C256.025 282.383 282.008 283.986 318.492 283.781C318.476 252.157 317.619 230.804 340.619 204.911C357.851 185.512 379.947 176.077 405.756 174.733Z"/><path transform="scale(1.24512 1.24512)" d="M140.047 520.562L250.679 520.496L250.545 556.064C250.503 570.017 248.463 585.336 258.982 596.215C262.836 600.163 267.712 602.961 273.065 604.298C279.678 605.931 292.498 605.432 299.857 605.415C310.086 605.35 320.315 605.373 330.544 605.484C327.881 609.999 325.411 614.367 323.424 619.236C321 625.1 319.488 631.3 318.943 637.622C318.169 646.363 318.455 657.153 318.468 666.062L318.465 708.312L318.459 747.25C318.464 768.864 318.012 778.485 326.503 798.974L330.311 806.539L140.163 806.786L140.047 520.562Z"/><path transform="scale(1.24512 1.24512)" d="M413.283 605.247L456.275 605.191C456.738 656.238 455.502 707.477 456.493 758.531C456.914 780.199 443.197 800.385 422.374 806.77C415.934 808.745 411.081 808.955 404.344 808.811C392.891 808.089 382.076 803.281 373.868 795.26C360.531 782.224 359.9 769.042 359.739 751.677C359.64 728.137 359.66 704.597 359.801 681.057C359.828 670.987 359.246 647.044 361.142 638.634C362.859 631.039 366.672 624.077 372.146 618.539C384.246 606.404 397.517 605.358 413.283 605.247Z"/><path transform="scale(1.24512 1.24512)" d="M401.848 214.63C404.018 214.473 406.25 214.299 408.448 214.287C429.312 214.177 450.201 230.008 455.095 250.393C457.024 258.427 456.5 268.461 456.493 276.726L456.455 305.004L456.086 411.762L414.375 411.815C401.246 411.94 390.097 413.133 378.739 405.428C359.365 392.283 359.871 377.382 359.855 356.504L359.82 325.632L359.602 280.311C359.584 257.987 358.266 239.484 378.212 224.417C385.644 218.802 392.74 216.277 401.848 214.63Z"/><path transform="scale(1.24512 1.24512)" d="M276.763 454.187C295.465 453.122 320.884 453.932 340.115 453.946L456.375 453.858L456.187 564.011L424.75 563.897L348.347 563.993C347.756 554.827 346.759 550.409 339.906 543.796C319.365 523.965 298.953 503.943 278.076 484.47C268.568 475.602 255.673 476.751 243.708 476.789C250.367 464.038 262.495 455.782 276.763 454.187Z"/><path transform="scale(1.24512 1.24512)" d="M287.788 325.206C295.471 324.517 310.309 325 318.438 325.032C318.399 358.341 313.857 381.923 330.932 411.928C313.485 411.595 294.318 411.78 276.875 412.023C263.185 412.902 255.483 414.873 243.506 421.551C243.294 411.429 243.191 401.305 243.197 391.18C243.16 372.638 241.971 357.025 254.625 341.753C263.143 331.472 274.675 326.38 287.788 325.206Z"/><path fill="#5DDB91" transform="scale(1.24512 1.24512)" d="M617.395 174.706C618.985 174.645 620.577 174.612 622.169 174.609C644.523 174.647 669.397 185.622 685.057 201.459C699.025 215.668 707.774 234.184 709.883 253.997C710.784 262.967 710.467 274.677 710.447 283.906L731.387 283.886C757.006 284.015 779.637 291.741 797.924 310.367C809.398 322.096 817.494 336.704 821.36 352.651C824.447 365.796 823.865 379.672 823.855 393.125L823.81 430.627C824.029 468.99 824.034 507.354 823.826 545.717C866.731 512.035 860.475 463.694 860.368 415.379L860.344 303.724C855.381 309.053 849.697 316.248 841.985 316.691C838.149 316.927 834.387 315.57 831.586 312.94C828.762 310.27 827.169 306.551 827.185 302.666C827.155 293.202 842.265 282.204 848.181 275.481C852.41 270.712 858.266 266.067 862.182 261.111C866.548 255.587 875.799 251.198 882.072 256.225C893.772 265.6 904.247 277.879 915.217 288.202C919.308 292.051 923.241 297.283 922.998 303.187C922.83 306.988 921.063 310.541 918.134 312.968C907.072 322.242 897.792 312.425 890.996 304.123C890.579 316.45 890.874 330.722 890.807 343.21C890.617 371.149 890.588 399.088 890.722 427.027C890.941 468.592 895.688 499.281 873.628 536.781C860.746 557.785 845.908 570.523 823.853 580.975L823.926 626.817C823.968 662.022 823.603 685.852 796.526 713.364C770.564 739.744 743.942 738.583 710.597 738.816C710.544 770.536 711.313 791.042 689.231 817.907C673.933 836.519 652.322 846.894 628.441 848.925C604.583 851.146 580.83 843.717 562.491 828.296C545.023 813.522 534.152 792.404 532.279 769.603C531.517 759.109 531.941 743.973 531.938 733.09L531.934 668.734L531.911 468.988L531.958 323.644L532 279.952C532.023 271.184 531.829 259.034 532.917 250.495C535.181 234.004 542.148 218.515 552.984 205.879C570.067 186.333 591.715 176.41 617.395 174.706Z"/><path transform="scale(1.24512 1.24512)" d="M572.906 453.967L693.155 453.812L731.579 453.774C746.708 453.816 759.006 452.183 771.059 463.491C785.58 477.114 781.59 496.073 782.095 514.048C782.539 529.82 783.22 541.568 771.682 553.617C758.444 565.672 746.697 563.973 730.01 563.961L694.601 563.903L572.821 564.023L572.906 453.967Z"/><path transform="scale(1.24512 1.24512)" d="M572.738 605.393C583.409 605.186 594.878 605.201 605.513 605.298C623.999 605.467 641.402 602.591 655.834 616.667C665.041 625.616 669.07 636.161 669.104 648.859C669.106 678.963 669.3 709.118 669.196 739.218C669.115 762.868 672.451 776.56 654.914 794.873C634.498 814.718 603.155 813.06 584.325 791.981C572.537 778.785 572.644 766.033 572.687 749.262C572.713 739.209 572.619 728.896 572.586 718.81L572.738 605.393Z"/><path transform="scale(1.24512 1.24512)" d="M616.224 215.183C629.59 213.437 644.431 218.856 654.242 227.868C663.478 236.351 669.005 249.471 669.089 261.959C669.244 285.201 669.101 308.437 669.12 331.673L669.133 358.675C669.133 364.772 669.422 372.934 668.276 378.744C666.85 386.303 663.326 393.309 658.106 398.96C649.195 408.424 639.161 411.504 626.625 411.804L572.768 411.745L572.614 304.073L572.705 275.545C572.742 268.42 572.538 261.509 573.588 254.43C576.816 232.677 594.783 217.757 616.224 215.183Z"/><path transform="scale(1.24512 1.24512)" d="M781.454 597.038C782.32 598.14 782.096 599.969 782.104 601.502L782.071 629.788C782.104 650.425 783.241 666.806 767.376 682.869C751.212 699.235 731.668 696.829 710.516 696.795L710.522 686.75C710.554 657.42 714.026 631.347 698.729 605.536C710.179 605.396 721.63 605.329 733.082 605.337C753.649 605.258 762.417 605.749 781.454 597.038Z"/><path transform="scale(1.24512 1.24512)" d="M710.611 326.239C732.402 326.051 751.284 323.824 768.465 340.752C783.359 355.426 782.171 372.606 782.139 391.496L782.065 421.484C779.506 419.971 777.022 418.705 774.382 417.346C760.497 411.139 747.193 411.796 732.4 411.818L698.579 411.906C706.481 396.535 710.509 386.959 710.51 369.33C710.51 355.071 710.318 340.477 710.611 326.239Z"/></svg>