<?xml version="1.0" encoding="utf-8" ?><svg xmlns="http://www.w3.org/2000/svg" xmlns:xlink="http://www.w3.org/1999/xlink" width="1024" height="1024" viewBox="0 0 1024 1024"><path fill="#050607" d="M0 0L1024 0L1024 1024L0 1024L0 0Z"/><path fill="#00FF80" d="M240.623 399.725C289.056 398.493 338.301 400.131 386.795 399.475C406.452 399.209 427.318 399.072 446.947 399.669C445.901 417.126 446.503 440.062 446.512 457.939L304.562 457.983C304.28 474.974 298.421 490.249 286.624 502.619C274.734 515.144 258.285 522.33 241.016 522.541L240.88 627.924C252.439 629.05 259.705 630.401 270.302 635.934C291.482 646.993 304.146 668.85 304.551 692.576L406.589 692.533L489.305 692.579L489.509 751.441L310.933 751.516L261.781 751.533C236.756 751.529 219.083 752.963 198.858 735.086C185.631 723.61 177.577 707.295 176.513 689.816C175.731 677.166 176.342 657.3 176.325 644.265L176.272 553.294L176.368 491.234C176.405 480.001 175.607 465.565 177.508 454.756C183.209 422.34 208.878 401.676 240.623 399.725Z"/><path fill="#00FF80" d="M578.264 399.513L725.425 399.517L764.454 399.5C789.219 399.499 808.008 399.33 827.136 418.328C836.791 427.836 843.314 440.065 845.833 453.38C847.091 459.917 846.666 473.049 846.649 480.212L846.55 523.985L846.793 676.625C846.796 682.246 846.925 689.585 846.232 694.994C844.484 708.647 836.713 723.895 826.811 733.47C818.695 741.318 804.458 748.485 793.398 750.482C785.658 751.881 775.514 751.492 767.49 751.482L732.811 751.451L598.75 751.519L535.028 751.493L534.983 692.468L718.951 692.592C718.994 677.328 724.397 662.565 734.218 650.881C747.255 635.429 763.354 629.7 782.768 628.006C783.243 593.394 782.602 557.35 782.609 522.574C766.007 522.427 750.105 515.87 738.223 504.274C725.613 492.028 719.264 475.398 718.979 457.98L578.2 457.986C577.542 440.441 578.024 417.288 578.264 399.513Z"/><path fill="#00FF80" d="M511.882 246.392C519.047 252.876 526.952 261.24 533.992 268.207L573.086 306.859C588.046 321.789 605.172 337.449 619.662 352.55L541.96 352.464L542.063 457.968C532.46 457.819 522.855 457.753 513.25 457.771L482.072 457.932L482.549 352.443L404.325 352.494C419.239 336.971 434.853 322.084 450.184 306.981L511.882 246.392Z"/><path fill="#00FF80" d="M528.019 520.931C538.386 520.886 548.752 520.917 559.118 521.023L558.895 628.306C555.975 628.919 532.364 628.61 528.056 628.594C527.986 615.796 528.002 602.998 528.102 590.2C516.347 589.931 503.876 590.102 492.066 590.076L492.011 628.67C482.047 628.993 471.568 628.838 461.562 628.835L461.577 520.993L492.128 521.005L492.036 560.876C504.008 560.938 515.979 560.864 527.949 560.654C527.901 547.413 527.924 534.172 528.019 520.931Z"/><path fill="#00FF80" d="M610.841 521.181C614.31 520.722 626.219 520.943 630.259 520.941L668.51 520.891L668.375 548.315C650.765 548.827 631.542 547.268 613.916 548.838C605.015 549.632 604.19 558.98 604.069 566.318C622.225 566.263 640.381 566.336 658.537 566.539L658.526 593.803L653.802 593.57L604.141 593.486C603.806 604.756 604.03 617.249 604.032 628.615L574.133 628.661C573.75 608.153 574.415 587.409 574.199 566.924C573.939 542.292 585.272 524.352 610.841 521.181Z"/><path fill="#00FF80" d="M402.189 521.188C405.091 520.763 413.519 520.93 416.834 520.934L445.355 520.988L445.112 550.455C436.176 550.536 406.116 549.609 399.426 551.334C395.759 552.302 392.384 554.149 389.592 556.715C384.616 561.29 381.718 568.421 381.638 575.156C381.617 581.541 384.199 587.659 388.79 592.097C393.53 596.654 400.835 599.053 407.374 599.229C420.045 599.571 432.785 599.389 445.465 599.282C445.064 604.402 445.116 609.682 445.079 614.828L445.085 628.866L420.829 628.923C402.008 628.956 387.757 628.626 371.779 615.88C360.567 606.803 353.356 593.695 351.693 579.366C348.407 548.521 372.353 524.34 402.189 521.188Z"/></svg>